<svg width="49" height="49" viewBox="0 0 49 49" fill="none" xmlns="http://www.w3.org/2000/svg">
<g clip-path="url(#clip0_199_131)">
<path d="M22.9688 0H26.0313C26.1538 0.0267969 26.275 0.0689063 26.4 0.0778385C30.1975 0.364948 33.7513 1.45214 36.9988 3.43893C43.3561 7.32703 47.2493 12.9416 48.6248 20.2776C48.792 21.167 48.8775 22.0717 49 22.9688V25.9355C48.8954 26.7701 48.8341 27.6123 48.681 28.4379C47.0961 36.9542 42.3876 43.0881 34.5756 46.8218C33.5369 47.3182 32.4268 47.6678 31.3026 48.1029V29.9206H36.5471C36.8138 27.8598 37.0728 25.8475 37.3421 23.7701H31.3077C31.2924 23.6527 31.2771 23.5902 31.2771 23.5277C31.2796 22.1559 31.2579 20.7842 31.2936 19.4137C31.3345 17.8301 32.1448 17.0096 33.7347 16.9407C34.8168 16.8935 35.9027 16.9165 36.9873 16.9088C37.1558 16.9088 37.3229 16.9088 37.4837 16.9088V11.3198C35.562 11.2904 33.6645 11.1717 31.7798 11.27C30.8062 11.321 29.7879 11.6235 28.8998 12.0446C26.3247 13.2645 25.1929 15.5026 24.9977 18.2321C24.879 19.8833 24.9479 21.5472 24.9326 23.2061C24.9313 23.3911 24.9326 23.5761 24.9326 23.8148H19.6983V29.927H24.9326V30.4936C24.9326 36.491 24.9326 42.4871 24.93 48.4845C24.93 48.6567 24.8994 48.8303 24.8841 49.0026H22.97C22.8628 48.977 22.7582 48.9349 22.6497 48.9273C19.697 48.7103 16.8603 48.0162 14.1985 46.7172C6.62904 43.023 2.00849 37.0397 0.382812 28.7684C0.205443 27.8662 0.125052 26.9436 0 26.0313V22.9688C0.0382813 22.6548 0.0816667 22.3422 0.11612 22.0283C0.692891 16.7327 2.7218 12.0714 6.29599 8.12073C10.0782 3.93914 14.7574 1.33474 20.3261 0.370052C21.2027 0.218203 22.0883 0.121224 22.9688 0Z" fill="#F25B19"/>
<path d="M24.8826 49C24.8992 48.8278 24.9285 48.6542 24.9285 48.482C24.9311 42.4846 24.9311 36.4885 24.9311 30.4911V29.9245H19.6968V23.8123H24.9311C24.9311 23.5736 24.9298 23.3886 24.9311 23.2036C24.9464 21.5447 24.8775 19.8808 24.9962 18.2296C25.1914 15.5014 26.3233 13.2619 28.8983 12.042C29.7864 11.621 30.8034 11.3185 31.7783 11.2675C33.6643 11.1692 35.5605 11.2879 37.4822 11.3173V16.9063C37.3215 16.9063 37.153 16.9063 36.9859 16.9063C35.9012 16.914 34.8153 16.891 33.7332 16.9382C32.1433 17.0071 31.333 17.8276 31.2922 19.4112C31.2564 20.7817 31.2781 22.1547 31.2756 23.5251C31.2756 23.5877 31.2909 23.6502 31.3062 23.7676H37.3406C37.0726 25.845 36.8123 27.8573 36.5456 29.9181H31.3011V48.0992C32.4253 47.664 33.5342 47.3144 34.5742 46.818C42.3861 43.0843 47.0947 36.9504 48.6795 28.4341C48.8326 27.6085 48.8939 26.7663 48.9985 25.9318V48.9962H24.8826V49Z" fill="white"/>
<path d="M0 26.0312C0.125052 26.9436 0.204167 27.8662 0.382812 28.7684C2.00849 37.0397 6.62904 43.023 14.1985 46.7146C16.8603 48.0123 19.697 48.7078 22.6497 48.9247C22.7582 48.9324 22.8628 48.9745 22.97 49H0V26.0312Z" fill="white"/>
<path d="M22.9688 0C22.0883 0.121224 21.2027 0.218203 20.3261 0.370052C14.7574 1.33602 10.0769 3.94042 6.29471 8.12073C2.72052 12.0701 0.692891 16.7327 0.11612 22.0283C0.0816667 22.3422 0.0382813 22.6548 0 22.9688V0C7.65625 0 15.3125 0 22.9688 0Z" fill="white"/>
<path d="M49 22.9688C48.8762 22.0717 48.7907 21.167 48.6248 20.2776C47.2493 12.9416 43.3561 7.32703 36.9988 3.43893C33.75 1.45214 30.1975 0.364948 26.4 0.0778385C26.2762 0.0689063 26.155 0.0267969 26.0312 0H49V22.9688Z" fill="white"/>
</g>
<defs>
<clipPath id="clip0_199_131">
<rect width="49" height="49" fill="white"/>
</clipPath>
</defs>
</svg>
