<svg width="49" height="49" viewBox="0 0 49 49" fill="none" xmlns="http://www.w3.org/2000/svg">
<g clip-path="url(#clip0_199_120)">
<path d="M22.9688 0C23.9899 0 25.0101 0 26.0313 0C26.1538 0.0267969 26.2753 0.0689062 26.3997 0.0784766C30.2144 0.363672 33.7861 1.45852 37.04 3.46158C43.364 7.35478 47.2601 12.9553 48.6248 20.2776C48.7904 21.1667 48.8775 22.0711 49.001 22.9688V26.0312C48.9617 26.3452 48.9177 26.6591 48.8842 26.9739C48.3597 31.8203 46.6036 36.1672 43.5105 39.936C39.6642 44.6235 34.7441 47.5338 28.7674 48.621C27.8621 48.7856 26.9443 48.8756 26.0322 49H22.9697C22.3716 48.9263 21.7725 48.8622 21.1762 48.778C16.6562 48.1348 12.5964 46.4131 9.06787 43.5114C4.3832 39.6603 1.46617 34.7469 0.380898 28.7693C0.216289 27.863 0.125371 26.9443 0 26.0312V22.9688C0.0382813 22.6548 0.0813477 22.3419 0.115801 22.027C0.682363 16.8371 2.64523 12.2481 6.10682 8.33574C9.91389 4.03389 14.655 1.35803 20.3264 0.369414C21.2021 0.216289 22.0873 0.121543 22.9688 0ZM24.4981 10.5293C22.4893 10.5293 20.4795 10.4929 18.4717 10.5407C16.8409 10.58 15.278 10.9618 13.8999 11.8863C11.6136 13.4204 10.6135 15.6877 10.557 18.331C10.4699 22.4424 10.5025 26.5576 10.5503 30.6709C10.5685 32.25 10.9867 33.7641 11.8844 35.0991C13.4329 37.3998 15.7173 38.3913 18.3769 38.4459C22.4567 38.5301 26.5404 38.5119 30.6212 38.4497C32.6443 38.4191 34.5115 37.7999 36.0332 36.371C37.7204 34.7871 38.4018 32.7601 38.4564 30.5245C38.5377 27.1768 38.5396 23.8272 38.5435 20.4786C38.5444 19.4919 38.4707 18.5023 38.3731 17.5194C37.9941 13.7162 35.279 10.9561 31.4748 10.6403C29.1579 10.4479 24.499 10.4738 24.4981 10.5302V10.5293Z" fill="#F25B19"/>
<path d="M0 26.0312C0.125371 26.9443 0.216289 27.863 0.380898 28.7693C1.46617 34.7469 4.3832 39.6603 9.06691 43.5114C12.5955 46.4131 16.6562 48.1348 21.1753 48.778C21.7715 48.8631 22.3706 48.9263 22.9688 49H0C0 41.3438 0 33.6875 0 26.0312Z" fill="white"/>
<path d="M26.0312 49C26.9433 48.8756 27.862 48.7856 28.7664 48.621C34.7431 47.5338 39.6632 44.6235 43.5095 39.936C46.6026 36.1672 48.3588 31.8194 48.8832 26.9739C48.9177 26.6591 48.9608 26.3461 49 26.0312V49H26.0312Z" fill="white"/>
<path d="M49 22.9688C48.8765 22.0711 48.7895 21.1676 48.6239 20.2776C47.2592 12.9553 43.364 7.35478 37.039 3.46158C33.7861 1.45852 30.2144 0.363672 26.3997 0.0784766C26.2753 0.0689062 26.1537 0.0267969 26.0312 0C33.6875 0 41.3438 0 49 0V22.9688Z" fill="white"/>
<path d="M22.9688 0C22.0883 0.121543 21.2021 0.217246 20.3264 0.369414C14.655 1.35803 9.91389 4.03389 6.10682 8.33574C2.64523 12.2481 0.682363 16.8371 0.115801 22.027C0.0813477 22.3409 0.0392383 22.6548 0 22.9688C0 15.3202 0 7.67252 0 0C7.65625 0 15.3125 0 22.9688 0Z" fill="white"/>
<path d="M31.4756 10.6393C35.2798 10.9551 37.9949 13.7151 38.3738 17.5184C38.4715 18.5013 38.5452 19.4908 38.5442 20.4775C38.5404 23.8262 38.5385 27.1758 38.4571 30.5235C38.4026 32.7591 37.7211 34.7861 36.0339 36.37C34.5132 37.7988 32.6451 38.418 30.6219 38.4487C26.5411 38.5109 22.4575 38.5291 18.3776 38.4448C15.718 38.3903 13.4336 37.3988 11.8851 35.0981C10.9865 33.763 10.5692 32.2481 10.551 30.6699C10.5032 26.5566 10.4697 22.4414 10.5577 18.33C10.6142 15.6866 11.6143 13.4194 13.9006 11.8853C15.2788 10.9608 16.8416 10.579 18.4724 10.5397C20.4802 10.4919 29.1595 10.4459 31.4756 10.6383V10.6393ZM24.562 12.9246V13.029C22.7436 13.029 20.9262 13.0089 19.1088 13.0366C17.9412 13.0538 16.7803 13.1945 15.7257 13.7534C14.0097 14.6626 13.1714 16.1967 13.135 18.0457C13.0508 22.315 13.0173 26.5891 13.1321 30.8565C13.2135 33.8664 15.139 35.7872 18.1518 35.8685C22.3876 35.9834 26.6301 35.9814 30.8659 35.8676C33.8413 35.7872 35.787 33.8473 35.8655 30.8824C35.9784 26.6303 35.9784 22.3715 35.8655 18.1194C35.787 15.1459 33.849 13.2969 30.8698 13.118C28.771 12.9926 26.6646 12.9849 24.561 12.9246H24.562Z" fill="white"/>
<path d="M30.87 13.117C33.8493 13.2959 35.7863 15.1449 35.8657 18.1184C35.9787 22.3705 35.9787 26.6293 35.8657 30.8814C35.7873 33.8463 33.8416 35.7871 30.8662 35.8666C26.6304 35.9805 22.3869 35.9824 18.152 35.8675C15.1393 35.7852 13.2138 33.8654 13.1324 30.8556C13.0176 26.5882 13.0511 22.3141 13.1353 18.0447C13.1717 16.1958 14.0091 14.6616 15.726 13.7525C16.7806 13.1935 17.9415 13.0538 19.1091 13.0356C20.9265 13.0079 28.7713 12.9916 30.871 13.117H30.87ZM31.718 24.5009C31.7189 20.5148 28.5177 17.3011 24.5249 17.281C20.5274 17.2609 17.2812 20.4938 17.2792 24.497C17.2773 28.4802 20.4824 31.6968 24.4732 31.7178C28.4688 31.7389 31.7161 28.5041 31.718 24.5009ZM33.6914 16.9805C33.6875 16.057 32.9468 15.3143 32.0242 15.3086C31.0758 15.3028 30.3264 16.0503 30.3303 16.9987C30.3341 17.927 31.0681 18.6639 31.9945 18.6687C32.943 18.6745 33.6952 17.9251 33.6914 16.9805Z" fill="#F25B19"/>
<path d="M31.719 24.5009C31.718 28.5042 28.4699 31.7399 24.4743 31.7179C20.4835 31.6969 17.2784 28.4803 17.2803 24.4971C17.2822 20.4929 20.5275 17.261 24.526 17.2811C28.5187 17.3012 31.7209 20.5149 31.719 24.5009ZM29.1886 24.5134C29.1953 21.9323 27.1032 19.823 24.5269 19.8105C21.9468 19.799 19.8288 21.8882 19.8126 24.4607C19.7963 27.062 21.9027 29.1866 24.4982 29.1875C27.0774 29.1885 29.1819 27.0907 29.1886 24.5134Z" fill="white"/>
<path d="M33.6912 16.9806C33.695 17.9261 32.9428 18.6745 31.9944 18.6688C31.068 18.663 30.333 17.9261 30.3301 16.9988C30.3263 16.0494 31.0756 15.3019 32.024 15.3086C32.9466 15.3144 33.6874 16.057 33.6912 16.9806Z" fill="white"/>
<path d="M29.1877 24.5144C29.181 27.0917 27.0764 29.1895 24.4972 29.1886C21.9008 29.1876 19.7953 27.063 19.8116 24.4618C19.8279 21.8893 21.9458 19.8001 24.526 19.8116C27.1023 19.8231 29.1934 21.9333 29.1877 24.5144Z" fill="#F25B19"/>
</g>
<defs>
<clipPath id="clip0_199_120">
<rect width="49" height="49" fill="white"/>
</clipPath>
</defs>
</svg>
