<svg xmlns="http://www.w3.org/2000/svg" xmlns:xlink="http://www.w3.org/1999/xlink" version="1.1" id="Layer_1" x="0px" y="0px" style="enable-background:new 0 0 2000 2000;" xml:space="preserve" viewBox="202.04 741.98 1595.91 516.05">
<style type="text/css">
	.st0{fill:#F25B19;}
</style>
<g>
	<path d="M758.26,1248.57h-56.08v-26.82c-13.17,16.09-36.09,32.18-70.22,32.18c-42.92,0-77.05-27.8-77.05-90.71v-134.11h56.08   v122.41c0,29.26,11.22,50.23,41.94,50.23c18.53,0,36.58-10.24,49.26-26.82v-145.82h56.08V1248.57z"/>
	<path d="M905.49,1249.54h-41.45l-100.95-220.43h66.81l40.48,94.12c5.85,13.17,12.68,32.68,16.58,49.74   c3.9-16.58,10.24-36.58,16.09-50.72l38.04-93.15h59.01L905.49,1249.54z"/>
	<path d="M1176.19,1226.62c-21.95,18.53-53.16,27.31-83.88,27.31c-70.72,0-118.02-45.84-118.02-115.09   c0-63.88,43.89-115.09,116.07-115.09c56.57,0,103.88,40.48,103.88,101.92c0,13.66-0.98,21.95-3.41,30.24h-158.5   c4.88,33.16,31.21,51.2,65.84,51.2c26.82,0,49.26-9.75,61.93-19.99L1176.19,1226.62z M1030.37,1118.36h107.78   c0.49-26.82-18.04-47.79-50.23-47.79C1054.27,1070.56,1036.23,1089.58,1030.37,1118.36z"/>
	<path d="M1210.32,1029.11h56.08v21.95c13.17-14.14,36.58-25.84,62.91-25.84c53.65,0,90.22,25.84,90.22,94.61v128.75h-56.08v-118.99   c0-35.11-18.04-51.69-49.26-51.69c-19.02,0-34.63,7.8-47.79,20.97v149.72h-56.08V1029.11z"/>
	<path d="M1567.96,1236.57c-13.17,10.73-36.58,21.46-64.86,21.46c-49.74,0-68.27-32.19-68.27-88.27V972.74h56.08v60.96v52.67v79.98   c0,23.9,7.8,39.5,26.33,39.5c15.12,0,25.85-6.83,33.65-12.68L1567.96,1236.57z"/>
	<path d="M1678.47,1027.84c72.67,0,119.48,49.26,119.48,115.09s-46.82,115.09-119.48,115.09s-119.48-49.26-119.48-115.09   S1605.81,1027.84,1678.47,1027.84z M1678.47,1205.84c34.63,0,59.99-24.87,59.99-62.91c0-37.06-25.85-62.42-59.99-62.42   c-33.16,0-59.5,24.38-59.5,62.42C1618.98,1179.51,1644.34,1205.84,1678.47,1205.84z"/>
	<g>
		<polygon points="274.11,1140.99 380.04,1246.91 307.97,1246.91 202.04,1140.99 420.12,922.92 239.18,741.98 311.25,741.98     492.18,922.92   "/>
	</g>
	<g>
		<polygon points="415.63,1140.99 521.55,1246.91 449.49,1246.91 343.56,1140.99 561.64,922.92 380.7,741.98 452.77,741.98     633.7,922.92   "/>
	</g>
	<polygon class="st0" points="346.7,925.22 217.28,1054.64 217.28,795.81  "/>
	<polygon class="st0" points="1568.42,1062.38 1501.37,1129.43 1501.37,995.33  "/>
</g>
</svg>