<svg width="103" height="28" viewBox="0 0 103 28" fill="none" xmlns="http://www.w3.org/2000/svg">
<path d="M14.4954 6.87524C13.0393 6.39009 11.8102 6.15444 10.7816 6.15444C9.79297 6.15444 9.01814 6.33464 8.44369 6.7089C7.86924 7.08316 7.57533 7.62375 7.57533 8.34454C7.57533 9.25939 7.98947 9.96632 8.81775 10.4515C9.64602 10.9366 10.9152 11.4356 12.6519 11.9624C14.3752 12.4891 15.7913 13.002 16.9135 13.5287C18.0223 14.0554 18.9842 14.8317 19.7724 15.8713C20.5605 16.9109 20.9613 18.297 20.9613 20.0158C20.9613 21.6792 20.5338 23.1208 19.6922 24.3267C18.8372 25.5327 17.6749 26.4475 16.1921 27.0713C14.7092 27.695 13.0126 28 11.1289 28C9.09829 28 7.0944 27.6257 5.13059 26.8772C3.16677 26.1287 1.47015 25.1168 0.0273438 23.8139L2.28506 19.004C3.55419 20.196 5.01035 21.1525 6.6669 21.8733C8.32345 22.594 9.83305 22.9544 11.1957 22.9544C12.3713 22.9544 13.2797 22.7327 13.9477 22.2891C14.6023 21.8455 14.9363 21.194 14.9363 20.3485C14.9363 19.6832 14.7092 19.1287 14.2683 18.6851C13.8275 18.2554 13.2664 17.895 12.5851 17.6178C11.9037 17.3406 10.9552 17.0356 9.76625 16.6891C8.04291 16.1901 6.62682 15.6911 5.54472 15.1921C4.44926 14.6931 3.51411 13.9307 2.72592 12.9188C1.911 11.9208 1.51022 10.5624 1.51022 8.87128C1.51022 7.30494 1.911 5.93266 2.72592 4.75444C3.54083 3.57623 4.67637 2.66137 6.14589 2.03761C7.60205 1.39999 9.31204 1.08118 11.2491 1.08118C12.9725 1.08118 14.6691 1.34454 16.3524 1.85741C18.0356 2.38415 19.5185 3.07722 20.8144 3.95048L18.6235 8.82969C17.3276 8.01187 15.9516 7.36038 14.4954 6.87524Z" fill="#44FFBB"/>
<path d="M39.3293 10.2159C40.9458 12.0872 41.7607 14.6792 41.7607 18.006C41.7607 18.602 41.7473 19.0594 41.7206 19.3921H27.8537C28.161 20.6535 28.7621 21.6515 29.6572 22.3584C30.5389 23.0654 31.6077 23.4258 32.8501 23.4258C33.7585 23.4258 34.6402 23.2456 35.4685 22.8852C36.3101 22.5248 37.0582 21.998 37.7262 21.305L40.6385 24.3683C39.6499 25.5188 38.461 26.3921 37.0582 27.002C35.6555 27.6119 34.0925 27.9169 32.3691 27.9169C30.3385 27.9169 28.5484 27.501 27.0388 26.6555C25.5158 25.8099 24.3402 24.6178 23.5119 23.0792C22.6837 21.5406 22.2695 19.7664 22.2695 17.7426C22.2695 15.705 22.6837 13.903 23.5253 12.3505C24.3669 10.798 25.5426 9.5921 27.0522 8.7327C28.5617 7.87329 30.2851 7.44359 32.2222 7.44359C35.3483 7.41586 37.7128 8.35844 39.3293 10.2159ZM36.5506 15.9961C36.4972 14.6792 36.0964 13.6258 35.3349 12.8218C34.5734 12.0317 33.5448 11.6297 32.2756 11.6297C31.0733 11.6297 30.0713 12.0178 29.2698 12.8079C28.4682 13.5842 27.9606 14.6515 27.7468 15.9961H36.5506Z" fill="#44FFBB"/>
<path d="M59.8896 10.2159C61.506 12.0872 62.3209 14.6792 62.3209 18.006C62.3209 18.602 62.3076 19.0594 62.2809 19.3921H48.4006C48.7078 20.6535 49.309 21.6515 50.2041 22.3584C51.0858 23.0654 52.1545 23.4258 53.397 23.4258C54.3054 23.4258 55.1871 23.2456 56.0154 22.8852C56.857 22.5248 57.6051 21.998 58.2731 21.305L61.1854 24.3683C60.1968 25.5188 59.0078 26.3921 57.6051 27.002C56.2024 27.6119 54.6394 27.9169 52.916 27.9169C50.8854 27.9169 49.0953 27.501 47.5857 26.6555C46.0627 25.8099 44.8871 24.6178 44.0588 23.0792C43.2305 21.5406 42.8164 19.7664 42.8164 17.7426C42.8164 15.705 43.2305 13.903 44.0722 12.3505C44.9138 10.798 46.0894 9.5921 47.599 8.7327C49.1086 7.87329 50.832 7.44359 52.7691 7.44359C55.9085 7.41586 58.2731 8.35844 59.8896 10.2159ZM57.0975 15.9961C57.044 14.6792 56.6433 13.6258 55.8818 12.8218C55.1203 12.0317 54.0916 11.6297 52.8225 11.6297C51.6202 11.6297 50.6182 12.0178 49.8167 12.8079C49.0151 13.5842 48.5075 14.6515 48.2937 15.9961H57.0975Z" fill="#44FFBB"/>
<path d="M97.8154 12.0594C96.7867 11.7267 95.8649 11.5604 95.05 11.5604C94.382 11.5604 93.8343 11.6852 93.4335 11.9347C93.0194 12.1842 92.819 12.5584 92.819 13.0574C92.819 13.598 93.0996 14.0277 93.6473 14.3188C94.195 14.6238 95.0901 14.9564 96.3459 15.3307C97.7085 15.7604 98.844 16.1762 99.7258 16.5782C100.607 16.9941 101.382 17.604 102.024 18.4079C102.665 19.2119 102.999 20.2792 102.999 21.5961C102.999 23.5782 102.264 25.1307 100.795 26.2396C99.325 27.3485 97.428 27.903 95.1302 27.903C93.5538 27.903 92.0308 27.6673 90.5613 27.1822C89.1051 26.697 87.836 26.004 86.7539 25.1168L88.544 21.2357C89.5326 22.0258 90.6281 22.6495 91.8304 23.0792C93.0461 23.5089 94.1817 23.7307 95.2638 23.7307C96.0119 23.7307 96.5997 23.606 97.0405 23.3426C97.4814 23.0792 97.7085 22.6911 97.7085 22.1644C97.7085 21.596 97.428 21.1386 96.8669 20.8198C96.3058 20.501 95.3974 20.1545 94.1549 19.7802C92.8324 19.3782 91.7369 18.9901 90.8686 18.5881C90.0002 18.1862 89.2387 17.5901 88.6242 16.7861C87.9963 15.9822 87.6891 14.9287 87.6891 13.6396C87.6891 11.6574 88.4105 10.105 89.8399 9.00991C91.2827 7.91486 93.0996 7.37427 95.3038 7.37427C96.6264 7.37427 97.9356 7.56833 99.2582 7.95645C100.581 8.34456 101.77 8.89902 102.852 9.61981L100.941 13.5287C99.8861 12.8772 98.844 12.3921 97.8154 12.0594Z" fill="#44FFBB"/>
<path d="M78.6319 0V10.5485C77.1891 8.44159 75.1051 7.37426 72.3798 7.37426C70.603 7.37426 69.04 7.80396 67.6773 8.63564C66.3147 9.48119 65.2593 10.6733 64.5112 12.2119C63.763 13.7505 63.4023 15.5248 63.4023 17.5485C63.4023 19.5861 63.7764 21.3881 64.5379 22.9545C65.286 24.5208 66.3547 25.7267 67.7307 26.5861C69.1068 27.4455 70.7099 27.8753 72.5267 27.8753C73.8493 27.8753 75.0115 27.6119 76.0536 27.0713C77.0822 26.5307 77.9506 25.7545 78.6453 24.701V27.6535H84.1493V0H78.6319ZM73.7558 23.2455C70.7633 23.2455 68.3319 20.7228 68.3319 17.6178C68.3319 14.5129 70.7633 11.9901 73.7558 11.9901C76.7483 11.9901 79.1796 14.5129 79.1796 17.6178C79.1796 20.7228 76.7483 23.2455 73.7558 23.2455Z" fill="#44FFBB"/>
</svg>
