<svg width="49" height="49" viewBox="0 0 49 49" fill="none" xmlns="http://www.w3.org/2000/svg">
<g clip-path="url(#clip0_199_113)">
<path d="M22.9688 0C23.9899 0 25.0101 0 26.0313 0C26.1538 0.0267969 26.2753 0.0689062 26.3997 0.0784766C30.2144 0.363672 33.7861 1.45852 37.04 3.46158C43.364 7.35478 47.2601 12.9553 48.6248 20.2776C48.7904 21.1667 48.8775 22.0711 49.001 22.9678V26.0303C48.9617 26.3442 48.9177 26.6581 48.8842 26.973C48.3597 31.8184 46.6036 36.1662 43.5105 39.935C39.6642 44.6216 34.7441 47.5329 28.7674 48.6201C27.8621 48.7847 26.9443 48.8746 26.0322 48.999H22.9697C22.3716 48.9253 21.7725 48.8612 21.1762 48.777C16.6562 48.1339 12.5964 46.4122 9.06787 43.5105C4.3832 39.6603 1.46617 34.7469 0.380898 28.7693C0.216289 27.863 0.125371 26.9443 0 26.0312V22.9687C0.0708203 22.3859 0.131113 21.8012 0.212461 21.2203C0.901523 16.3423 2.8376 12.0241 6.10586 8.33574C9.9158 4.0358 14.655 1.35803 20.3264 0.369414C21.2021 0.216289 22.0873 0.121543 22.9688 0ZM11.2844 33.3324C11.2987 33.3765 11.2987 33.4176 11.3188 33.4329C11.3944 33.4903 11.4729 33.5449 11.5562 33.5908C16.572 36.4045 21.7763 36.7289 26.8945 34.1574C32.7161 31.2327 35.4542 26.1987 35.6848 19.756C35.7021 19.2813 35.815 18.9779 36.1968 18.6889C37.061 18.0362 37.7759 17.2323 38.398 16.3136C37.4065 16.5815 36.4591 16.839 35.5116 17.0954C35.4925 17.0524 35.4743 17.0093 35.4551 16.9653C36.4945 16.2332 37.2725 15.3068 37.6611 14.142C36.6352 14.5048 35.6054 14.8627 34.5814 15.2359C34.2856 15.3441 34.0962 15.2618 33.8646 15.0551C32.1821 13.5535 30.2336 13.142 28.13 13.9143C26.0064 14.6943 24.7795 16.2858 24.4923 18.5406C24.4139 19.1588 24.4809 19.7952 24.4809 20.4527C19.8488 20.1264 16.0389 18.1625 12.9592 14.5651C11.6117 17.5299 12.1725 19.9876 14.6828 22.1304C14.1535 22.0289 13.7564 21.9801 13.3764 21.8729C12.985 21.7629 12.6089 21.5954 12.2194 21.4509C12.0509 23.7975 13.5736 25.7604 16.4743 27.0668H14.1401C15.0866 29.4823 16.8007 30.7398 19.3713 31.0069C16.8935 32.8453 14.232 33.5794 11.2844 33.3334V33.3324Z" fill="#F25B19"/>
<path d="M0 26.0312C0.125371 26.9443 0.216289 27.863 0.380898 28.7693C1.46617 34.7469 4.3832 39.6603 9.06691 43.5114C12.5955 46.4131 16.6562 48.1348 21.1753 48.778C21.7715 48.8631 22.3706 48.9263 22.9688 49H0C0 41.3438 0 33.6875 0 26.0312Z" fill="white"/>
<path d="M26.0312 49C26.9433 48.8756 27.862 48.7856 28.7664 48.621C34.7421 47.5338 39.6632 44.6235 43.5095 39.936C46.6026 36.1672 48.3578 31.8194 48.8832 26.9739C48.9177 26.6591 48.9608 26.3461 49 26.0312V49H26.0312Z" fill="white"/>
<path d="M49 22.9688C48.8765 22.0711 48.7904 21.1676 48.6239 20.2785C47.2592 12.9563 43.364 7.35574 37.039 3.46254C33.7861 1.45852 30.2144 0.363672 26.3997 0.0784766C26.2753 0.0689062 26.1537 0.0267969 26.0312 0C33.6875 0 41.3438 0 49 0V22.9688Z" fill="white"/>
<path d="M22.9688 0C22.0883 0.121543 21.2021 0.217246 20.3264 0.369414C14.655 1.35803 9.9158 4.0358 6.10682 8.33478C2.8376 12.0241 0.901523 16.3423 0.212461 21.2203C0.130156 21.8012 0.0698633 22.3859 0 22.9688V0C7.65625 0 15.3125 0 22.9688 0Z" fill="white"/>
<path d="M11.2842 33.3326C14.2318 33.5785 16.8933 32.8454 19.3711 31.006C16.8005 30.74 15.0865 29.4815 14.14 27.0659H16.4742C13.5734 25.7596 12.0508 23.7967 12.2192 21.4501C12.6087 21.5946 12.9848 21.762 13.3763 21.8721C13.7562 21.9793 14.1524 22.0281 14.6826 22.1295C12.1733 19.9868 11.6115 17.5301 12.959 14.5642C16.0387 18.1627 19.8487 20.1255 24.4807 20.4519C24.4807 19.7944 24.4137 19.158 24.4922 18.5397C24.7793 16.284 26.0062 14.6925 28.1298 13.9134C30.2334 13.1411 32.181 13.5526 33.8644 15.0542C34.096 15.2609 34.2855 15.3432 34.5812 15.2351C35.6052 14.8619 36.635 14.5039 37.6609 14.1412C37.2724 15.305 36.4943 16.2314 35.455 16.9645C35.4741 17.0075 35.4923 17.0506 35.5114 17.0946C36.4589 16.8381 37.4063 16.5816 38.3978 16.3127C37.7758 17.2324 37.0609 18.0354 36.1967 18.6881C35.8138 18.9771 35.7019 19.2814 35.6846 19.7552C35.454 26.1979 32.7159 31.2319 26.8943 34.1566C21.7761 36.7281 16.5718 36.4027 11.556 33.59C11.4737 33.5441 11.3942 33.4895 11.3186 33.4321C11.2985 33.4168 11.2985 33.3766 11.2842 33.3316V33.3326Z" fill="white"/>
</g>
<defs>
<clipPath id="clip0_199_113">
<rect width="49" height="49" fill="white"/>
</clipPath>
</defs>
</svg>
